<?xml version="1.0" standalone="no"?>
<!DOCTYPE svg PUBLIC "-//W3C//DTD SVG 20010904//EN"
 "http://www.w3.org/TR/2001/REC-SVG-20010904/DTD/svg10.dtd">
<svg version="1.0" xmlns="http://www.w3.org/2000/svg"
 width="352.000000pt" height="150.000000pt" viewBox="0 0 352.000000 150.000000"
 preserveAspectRatio="xMidYMid meet">

<g transform="translate(0.000000,150.000000) scale(0.100000,-0.100000)"
fill="#000000" stroke="none">
<path d="M814 1096 c-3 -8 -3 -19 0 -24 3 -6 -10 -43 -28 -84 -90 -194 -121
-483 -61 -574 33 -50 99 -18 151 74 18 32 19 32 24 10 4 -16 14 -24 32 -26 30
-4 71 41 115 125 16 29 32 53 37 53 13 0 -3 -165 -24 -250 -31 -120 -58 -191
-95 -247 -37 -55 -77 -89 -94 -79 -31 19 -18 160 22 245 24 52 89 121 113 121
14 0 15 -7 9 -46 -5 -35 -4 -45 6 -42 19 6 31 62 19 92 -11 31 -34 33 -77 6
-68 -41 -124 -155 -138 -281 -15 -122 46 -169 118 -90 106 117 178 343 176
550 -2 163 -18 183 -59 69 -42 -121 -105 -210 -125 -178 -6 10 -4 25 27 157
18 73 20 95 10 105 -19 19 -30 0 -48 -85 -27 -132 -103 -277 -144 -277 -32 0
-53 55 -54 140 -1 76 -1 76 37 110 91 80 166 327 124 410 -15 29 -64 40 -73
16z m48 -99 c-4 -97 -66 -271 -111 -311 -27 -25 -27 -16 4 109 44 172 80 268
99 262 7 -3 10 -26 8 -60z"/>
<path d="M146 1020 c-64 -142 -105 -446 -77 -575 10 -49 37 -43 50 11 25 98
116 274 142 274 4 0 7 -51 6 -113 -1 -84 2 -118 12 -130 21 -26 47 -20 69 14
l19 31 6 -43 c3 -24 13 -49 23 -56 28 -20 54 3 96 85 l37 73 6 -38 c12 -77 46
-111 82 -81 25 21 64 88 61 105 -2 10 -15 -3 -35 -35 -59 -96 -80 -63 -69 114
8 153 -16 167 -44 24 -13 -65 -90 -215 -111 -215 -11 0 -14 16 -13 80 0 44 5
107 10 140 10 64 8 95 -7 95 -9 0 -11 -9 -28 -115 -10 -72 -47 -155 -67 -155
-17 0 -21 48 -12 144 18 184 -46 168 -160 -41 l-54 -98 6 120 c6 135 18 187
76 329 22 55 40 103 40 108 0 4 -8 8 -19 8 -13 0 -26 -18 -45 -60z"/>
<path d="M3390 990 c-6 -12 -18 -55 -26 -97 -8 -42 -15 -78 -17 -79 -1 -1 -21
-11 -44 -23 -41 -20 -54 -43 -33 -56 5 -3 23 4 40 16 16 13 31 21 33 18 2 -2
1 -33 -2 -69 -5 -56 -13 -75 -54 -137 -52 -78 -82 -97 -104 -67 -17 23 -16 64
2 161 14 72 14 80 -2 110 -9 18 -30 38 -46 44 -25 11 -31 9 -56 -15 -41 -40
-79 -114 -101 -200 -21 -84 -31 -106 -55 -126 -30 -25 -37 6 -30 130 6 119 2
150 -20 150 -20 0 -45 -35 -96 -132 l-48 -93 5 90 c8 108 -6 175 -36 175 -21
0 -27 -24 -10 -35 6 -3 10 -35 10 -71 0 -52 -5 -72 -26 -107 -53 -86 -103
-120 -118 -81 -10 25 -7 101 6 169 10 55 9 68 -6 99 -50 105 -134 45 -191
-137 -29 -90 -34 -211 -11 -242 13 -18 15 -18 40 -1 17 10 44 52 70 106 l44
89 6 -48 c13 -102 64 -113 138 -30 l48 53 -7 -78 c-6 -71 -5 -78 11 -75 12 3
30 33 50 84 49 119 95 207 107 200 6 -4 7 -37 3 -90 -8 -102 0 -151 27 -166
17 -9 25 -7 45 12 l24 22 0 -24 c0 -26 25 -69 40 -69 19 0 54 48 94 130 l41
85 7 -55 c13 -112 75 -111 158 2 l28 38 7 -47 c13 -88 39 -116 90 -97 25 10
97 122 93 147 -2 18 -9 11 -36 -36 -39 -66 -76 -97 -95 -78 -16 16 -15 304 1
324 7 8 39 22 72 32 91 28 69 50 -23 24 -22 -6 -40 -9 -42 -7 -2 2 5 39 15 83
10 44 16 83 14 87 -9 14 -23 9 -34 -12z m-869 -226 c11 -13 9 -29 -16 -102
-50 -148 -105 -250 -126 -236 -14 8 -10 104 6 167 25 95 79 187 111 187 6 0
18 -7 25 -16z m624 -1 c11 -15 7 -35 -25 -123 -40 -113 -83 -204 -101 -216
-45 -27 -26 163 26 267 45 89 73 109 100 72z"/>
<path d="M1614 833 c-22 -23 -50 -85 -68 -157 -16 -62 -43 -110 -89 -163 -35
-40 -64 -43 -73 -7 -6 24 -4 52 12 191 5 43 3 57 -15 82 -27 38 -55 47 -85 28
-31 -21 -92 -141 -111 -218 -27 -118 -16 -219 25 -219 17 0 64 67 96 135 l32
70 8 -45 c9 -53 42 -91 73 -83 12 3 39 25 60 49 l39 44 10 -42 c16 -61 33 -81
71 -81 41 0 97 53 133 125 53 108 45 138 -10 38 -45 -82 -88 -130 -118 -130
-36 0 -47 33 -41 119 7 88 27 161 59 211 l23 35 5 -45 c6 -57 33 -63 38 -9 6
75 -33 113 -74 72z m-262 -70 c15 -16 12 -29 -33 -146 -79 -210 -115 -248
-113 -121 0 82 32 184 75 243 32 45 48 50 71 24z"/>
<path d="M1861 782 c-87 -91 -143 -354 -86 -402 25 -21 53 7 102 107 45 91 48
95 51 62 4 -47 21 -88 42 -99 29 -15 81 22 125 88 42 65 46 66 111 42 l27 -11
-40 -42 c-45 -46 -77 -102 -68 -117 15 -24 52 -7 102 45 43 44 53 61 53 88 0
23 8 41 26 58 60 56 50 81 -11 28 -35 -31 -36 -31 -81 -19 -65 18 -78 34 -60
69 8 15 34 44 57 65 34 31 47 37 70 32 24 -5 29 -2 29 14 0 13 -9 22 -26 26
-54 14 -180 -110 -172 -168 6 -38 -76 -161 -109 -166 -42 -6 -50 35 -30 153
18 102 18 103 -4 139 -11 20 -25 36 -29 36 -5 0 -16 3 -25 6 -10 4 -28 -7 -54
-34z m79 -21 c17 -33 -101 -327 -136 -338 -19 -6 -24 37 -14 109 23 163 112
299 150 229z m293 -265 c-21 -29 -53 -50 -53 -36 0 5 14 26 32 46 34 39 52 31
21 -10z"/>
</g>
</svg>
